<svg width="127" height="48" viewBox="0 0 127 48" fill="none" xmlns="http://www.w3.org/2000/svg">
<path fill-rule="evenodd" clip-rule="evenodd" d="M94.6256 32.9445C96.2313 33.6024 97.9543 33.9279 99.69 33.9012C101.93 33.9012 103.659 33.4196 104.877 32.4562C105.468 32.0012 105.941 31.4125 106.259 30.7387C106.577 30.065 106.729 29.3255 106.703 28.5813C106.732 27.7448 106.539 26.9155 106.143 26.1771C105.746 25.5042 105.204 24.9276 104.557 24.4891C103.769 23.9545 102.935 23.4923 102.063 23.108C101.139 22.7009 100.24 22.2398 99.37 21.7269C99.0935 21.5772 98.863 21.3554 98.7033 21.085C98.5436 20.8147 98.4606 20.5061 98.4634 20.1923C98.4562 19.9385 98.5078 19.6864 98.6142 19.4558C98.7206 19.2251 98.8788 19.022 99.0767 18.8623C99.5846 18.4902 100.208 18.3091 100.837 18.3508C101.557 18.3497 102.275 18.4443 102.97 18.6321C103.747 18.8488 104.512 19.1063 105.262 19.4035V15.8945C104.758 15.7233 104.27 15.5787 103.797 15.4606C102.872 15.2348 101.922 15.1231 100.97 15.1281C98.9786 15.1281 97.4053 15.5842 96.2501 16.4964C95.0941 17.4088 94.5163 18.6833 94.5168 20.3201C94.4962 21.0619 94.6515 21.798 94.9701 22.4685C95.2562 23.0448 95.6499 23.5613 96.1301 23.9903C96.5819 24.3948 97.0784 24.7467 97.6101 25.039C98.1253 25.3203 98.6053 25.5633 99.0501 25.7679C99.7607 26.092 100.392 26.3946 100.943 26.6759C101.427 26.9105 101.872 27.2166 102.263 27.5839C102.422 27.7355 102.548 27.9183 102.633 28.1208C102.718 28.3232 102.76 28.541 102.757 28.7604C102.763 29.0246 102.71 29.2868 102.601 29.5279C102.493 29.7691 102.332 29.9831 102.13 30.1543C101.712 30.5211 101.005 30.7043 100.01 30.7042C99.0265 30.7005 98.0499 30.5408 97.1167 30.231C96.2618 29.9529 95.4314 29.6514 94.6256 29.3267L94.6256 32.9445ZM69.7946 16.4069C71.1703 17.0573 72.3151 18.11 73.0766 19.425C73.8544 20.7549 74.2433 22.3918 74.2433 24.3356C74.2431 27.4218 73.3628 29.745 71.6023 31.3052C69.8414 32.8654 67.3885 33.6455 64.2434 33.6455H59.064V15.3839H64.8075C66.5262 15.3427 68.2317 15.6926 69.7946 16.4069ZM62.9357 30.4484H64.6024C68.3459 30.4485 70.2177 28.445 70.2177 24.4379C70.2175 22.4261 69.7731 20.9427 68.8844 19.9876C67.9955 19.0328 66.7049 18.5553 65.0126 18.5553H62.9357V30.4484ZM92.5607 15.3838L86.1761 23.466L92.612 33.6454H88.2017L83.4069 25.9469L81.7659 27.1234V33.6454H77.8942V15.3838H81.7659V23.7473L82.5352 22.6731L83.3044 21.5989L88.253 15.3838H92.5607ZM121.127 15.3838H124.999V33.6456H121.127V25.768H113.871V33.6456H109.999V15.3838H113.871V22.5453H121.127V15.3838Z" fill="#090B0C"/>
<path d="M27.3969 24.1345C27.3957 24.4641 27.4023 24.3477 27.3867 26.2037C28.0201 26.3005 28.447 26.4442 28.9351 25.9145C30.3881 24.3006 31.9489 22.7886 33.6066 21.3889C33.7567 21.2656 33.7591 21.2487 33.646 21.0902C33.2883 20.5891 32.9516 20.1693 32.6412 19.6834C32.5987 19.6168 32.6764 19.542 32.7481 19.5383C33.5141 19.5525 34.2586 19.7954 34.8874 20.2361C35.0119 20.3159 35.0077 20.3159 35.129 20.2315C35.8919 19.6936 36.6985 19.2214 37.54 18.8199C37.7415 18.7252 37.7515 18.6896 37.6312 18.5012C37.3298 18.0294 36.9995 17.6328 36.6452 17.0035C36.6207 16.9328 36.7082 16.8768 36.7869 16.8767C37.6077 16.8762 38.3915 17.3324 39.2474 18.0602C39.34 18.1389 39.3302 18.1368 39.4469 18.1042C40.3488 17.85 41.28 17.7169 42.2164 17.7082C42.4788 17.7058 42.4947 17.6131 42.4315 17.3514C42.23 16.5187 41.3518 15.3328 39.5363 15.0842C34.6806 14.4192 29.9149 19.8237 27.3969 24.1345Z" fill="#4D54FD"/>
<path d="M34.445 11.5554C34.6721 11.4233 34.5978 11.371 34.457 11.1413C34.1454 10.6329 32.8437 9.98549 30.69 10.9146C28.9799 11.6523 27.2768 13.7577 26.0977 15.5547C27.0847 17.9529 27.3053 20.4493 27.3749 22.8621C28.2606 20.1416 30.1676 14.0429 34.445 11.5554Z" fill="#4D54FD"/>
<path d="M46.0797 25.8261C46.153 25.2744 46.0948 24.7129 45.9098 24.1884C45.7249 23.6638 45.4185 23.1911 45.0161 22.8095C42.1328 19.9691 31.5057 21.7009 26.866 30.2054C26.4467 31.0819 26.1308 32.0048 25.9247 32.9554C24.9373 32.2602 22.2693 30.1437 20.5368 31.1037C20.2717 31.3376 19.9329 31.4694 19.5805 31.4755C18.2887 31.3176 16.988 31.2463 15.6869 31.262C15.4981 31.2652 15.4874 31.256 15.4662 31.0669C15.3794 30.2932 15.3384 29.6125 15.265 29.0597C15.2546 28.9812 15.1335 28.9655 15.0894 29.0227C14.6661 29.6799 14.3748 30.4142 14.2318 31.1843C14.1953 31.3378 14.1961 31.3372 14.04 31.3521C13.108 31.4361 12.1854 31.6039 11.2832 31.8536C11.076 31.9122 11.0495 31.8955 11.0094 31.6826C10.8802 30.9974 10.7888 30.3544 10.637 29.554C10.6267 29.5383 10.6126 29.5254 10.596 29.5165C10.5795 29.5075 10.561 29.5029 10.5423 29.5029C10.5235 29.5029 10.5051 29.5075 10.4885 29.5165C10.472 29.5254 10.4579 29.5383 10.4475 29.554C9.98991 30.4014 9.73082 31.343 9.69011 32.3067C9.67933 32.4389 9.68399 32.4323 9.56469 32.4883C8.66066 32.9032 7.8362 33.4751 7.12908 34.178C6.94329 34.3653 6.84824 34.3229 6.70593 34.0984C6.44696 33.6842 6.2868 33.2153 6.23802 32.7283C6.18924 32.2413 6.25318 31.7496 6.42481 31.2917C7.91353 27.3474 17.1597 25.4417 25.7326 32.3276C26.7003 33.1049 22.2549 27.0176 20.5604 27.9104C20.4238 27.9903 20.2694 28.0346 20.1115 28.0392C19.9535 28.0437 19.797 28.0085 19.656 27.9366C18.362 27.2418 17.0016 26.6807 15.5954 26.262C15.424 26.2114 15.4191 26.2044 15.4397 26.0257C15.531 25.235 15.6358 24.4718 15.6556 24.1095C15.6593 24.0403 15.5588 24.0025 15.4934 24.0323C15.0507 24.2338 14.6721 24.818 14.1899 25.7421C14.1144 25.8868 14.1134 25.8874 13.9542 25.8556C13.0078 25.6644 12.0464 25.558 11.0814 25.5376C10.8741 25.5337 10.8563 25.5147 10.8672 25.3061C10.9067 24.5505 10.975 23.9177 10.975 23.2845C10.9635 23.2106 10.86 23.2025 10.7907 23.24C10.2986 23.5067 9.88903 24.3703 9.46592 25.4771C9.41662 25.6061 9.42206 25.6019 9.28566 25.6169C8.25846 25.7271 7.24842 25.9629 6.27787 26.3192C6.02998 26.4107 6.02981 26.3442 5.95461 26.0848C5.77157 25.5251 5.77132 24.9211 5.95389 24.3613C6.13647 23.8014 6.49226 23.3152 6.96914 22.9739C10.6796 19.8637 20.4047 22.1854 25.9366 31.7976C25.4104 29.1733 24.7679 24.5842 22.7818 24.9852C22.6424 25.0146 22.4975 25.0012 22.3658 24.9465C22.2341 24.8919 22.1218 24.7987 22.0435 24.6789C19.4332 21.2526 16.8288 18.9398 9.98127 17.7084C9.72285 17.662 9.69562 17.6115 9.76421 17.3517C9.93303 16.685 10.3047 16.0883 10.8271 15.645C11.3495 15.2018 11.9966 14.9343 12.6775 14.88C18.3236 14.0867 24.3593 19.6695 26.0967 29.235C27.2779 26.6067 26.7024 23.9438 25.535 23.578C25.4113 23.5504 25.2992 23.4852 25.2138 23.391C25.1284 23.2969 25.0739 23.1785 25.0578 23.052C24.7649 21.2823 24.2112 19.5665 23.4152 17.9615C23.3371 17.8064 23.3381 17.8007 23.4722 17.6912C24.0664 17.2061 24.6048 16.8459 25.1078 16.4036C25.167 16.3515 25.1162 16.2447 25.0451 16.2343C24.2928 16.1761 23.5374 16.2967 22.8399 16.5865C22.6791 16.646 22.6742 16.6446 22.5812 16.4996C22.1585 15.8412 21.6893 15.2143 21.1774 14.6236C21.0422 14.4673 21.0441 14.4424 21.2023 14.3098C21.6038 13.9732 22.0187 13.6825 22.4903 13.2186C22.5332 13.1576 22.4673 13.0657 22.3891 13.0572C21.6628 13.021 20.9389 13.1665 20.2819 13.4806C20.1483 13.5357 20.1534 13.5367 20.0486 13.4366C19.3187 12.7418 18.536 12.1056 17.7076 11.5336C17.4911 11.3834 17.5005 11.3036 17.6966 11.1195C18.5931 10.278 20.0969 9.86776 21.8456 10.7746C23.7977 11.7881 25.3115 13.4895 26.0987 15.5547V2.22011C26.0987 2.01485 26.0822 1.99842 25.8784 2.0001C19.679 2.00824 13.6966 4.29983 9.05836 8.44308C4.53897 12.569 2 18.165 2 24C2 29.835 4.53897 35.431 9.05836 39.5569C13.6966 43.7002 19.679 45.9918 25.8785 45.9999C26.0822 46.0016 26.0987 45.9851 26.0987 45.7799V33.3947C26.0907 33.036 26.4028 32.7075 26.896 32.3487C28.5727 31.2091 30.3367 30.5011 31.1471 31.3254C31.2687 31.4558 31.4179 31.557 31.5836 31.6213C31.7494 31.6857 31.9274 31.7116 32.1045 31.6971C33.9609 31.4159 35.8395 31.3102 37.7155 31.3816C37.9062 31.3908 37.9181 31.381 37.9425 31.1902C38.034 30.475 38.0932 29.8499 38.1632 29.3237C38.1736 29.2452 38.2818 29.2425 38.3387 29.2867C38.7496 29.6055 39.1553 30.3797 39.4289 31.4032C39.4669 31.5451 39.4634 31.542 39.6077 31.5637C40.2731 31.6607 40.9305 31.8071 41.5744 32.0017C41.7816 32.0654 41.8092 32.0486 41.8523 31.8348C41.9598 31.3013 42.057 30.7722 42.1795 30.126C42.2078 30.0568 42.3155 30.068 42.369 30.126C42.9913 30.841 43.3655 31.7407 43.4351 32.689C43.4469 32.805 43.441 32.7958 43.5404 32.8556C44.0895 33.177 44.5804 33.5899 44.9923 34.0768C45.1606 34.2804 45.2756 34.2259 45.4154 33.9972C45.7044 33.6008 45.8887 33.1369 45.9511 32.6491C46.0135 32.1613 45.9519 31.6656 45.7721 31.2083C44.5852 27.675 33.3574 25.8998 26.4838 32.2147C26.6096 31.7747 26.7866 31.3512 27.0111 30.9531C28.1475 28.7201 30.0501 27.1204 31.2616 27.9789C31.3968 28.0638 31.5519 28.111 31.7111 28.1158C31.8703 28.1205 32.028 28.0827 32.1679 28.0062C33.7447 27.266 35.3702 26.6359 37.0329 26.1206C37.2013 26.0696 37.2055 26.0636 37.1874 25.8874C37.1148 25.1824 37.0405 24.5293 37.0224 24.1974C37.0187 24.1283 37.1102 24.0948 37.1846 24.1202C37.6474 24.2781 38.1329 24.7205 38.6553 25.5373C38.7382 25.6668 38.7359 25.6658 38.8854 25.6331C39.751 25.438 40.6306 25.3123 41.5159 25.2571C41.7165 25.2458 41.7308 25.2299 41.722 25.0278C41.6951 24.4111 41.6593 23.8782 41.6593 23.3284C41.6708 23.2545 41.7627 23.2507 41.8436 23.284C42.3263 23.4827 42.8767 24.1885 43.3524 25.1986C43.4054 25.3111 43.3976 25.3055 43.5201 25.3224C44.2964 25.4071 45.0461 25.6556 45.7205 26.0518C45.9451 26.1935 46.0278 26.0912 46.0797 25.8261Z" fill="#4D54FD"/>
</svg>
